# xmcd
#
# Track frame offsets: 
#        150
#        16931
#        34639
#        52427
#        70203
#        92822
#        109321
#        128882
#        143010
#        160908
#        177681
#        193398
#        209339
#        227856
#
# Disc length: 3293 seconds
#
# Revision: 0
# Processed by: cddbd v1.5.2PL0 Copyright (c) Steve Scherf et al.
# Submitted via: ExactAudioCopy v0.99pb4
#
DISCID=d60cdb0e
DTITLE=Ragged Jack - Hillbilly Mentality
DYEAR=2006
DGENRE=Country Rock
TTITLE0=Crossin' That Line
TTITLE1=Hillbilly Mentality
TTITLE2=Free My Soul
TTITLE3=Southern Breeze
TTITLE4=Ghost In The Radio
TTITLE5=Double Wide Honky Tonk
TTITLE6=Dig A Little Deeper
TTITLE7=So Long Tulsa
TTITLE8=Head On Collision
TTITLE9=I Can Make A Little
TTITLE10=Need A Little Love
TTITLE11=Man That's Cool
TTITLE12=Broke Down
TTITLE13=Leavin' Rivertown
EXTD=
EXTT0=
EXTT1=
EXTT2=
EXTT3=
EXTT4=
EXTT5=
EXTT6=
EXTT7=
EXTT8=
EXTT9=
EXTT10=
EXTT11=
EXTT12=
EXTT13=
PLAYORDER=
